<?xml version="1.0" encoding="utf-8"?>
<!-- Generator: Adobe Illustrator 19.0.0, SVG Export Plug-In . SVG Version: 6.00 Build 0)  -->
<svg version="1.1" id="Capa_1" xmlns="http://www.w3.org/2000/svg" xmlns:xlink="http://www.w3.org/1999/xlink" x="0px" y="0px"
	 viewBox="0 0 28 100" style="enable-background:new 0 0 28 100;" xml:space="preserve">
<style type="text/css">
	.st0{fill:#808080;}
</style>
<path id="XMLID_5_" class="st0" d="M14.2,96.4l10.1-12.6L14.5,91V51.8l1.8-2.1l-1.8-2.1V23.9l5.6-6.9l-0.6-0.7l-5,6.2v-1.7l5.5-6.9
	L19.5,13l-5,6.2v-1.7l5.5-6.9l-0.5-0.7l-5,6.2v-1.7l5.6-7l-0.6-0.7L14,13.5L8.8,6.9L8.2,7.6l5.5,6.9v1.7l-4.9-6.1l-0.6,0.7l5.5,6.9
	v1.7l-4.9-6.2L8.2,14l5.5,6.9v1.7l-4.9-6.1l-0.6,0.7l5.5,6.9v23.4l-1.8,2.1l1.8,2.1v39.1l-9.6-7.2L14.2,96.4z M18.8,89.1l-4.3,5.2
	v-2.1L18.8,89.1z M13.7,94.4l-4.3-5.2l4.3,3.2V94.4z"/>
</svg>
