<?xml version="1.0" encoding="utf-8"?>
<!-- Generator: Adobe Illustrator 19.0.0, SVG Export Plug-In . SVG Version: 6.00 Build 0)  -->
<svg version="1.1" id="Capa_1" xmlns="http://www.w3.org/2000/svg" xmlns:xlink="http://www.w3.org/1999/xlink" x="0px" y="0px"
	 viewBox="0 0 30 30" style="enable-background:new 0 0 30 30;" xml:space="preserve">
<style type="text/css">
	.st0{display:none;}
	.st1{display:inline;}
</style>
<g id="XMLID_161_">
	<g id="XMLID_375_" class="st0">
		<path id="XMLID_376_" class="st1" d="M5.9,2.9v19.3c0,2.5,2.1,4.6,4.6,4.6h7.3c2.5,0,4.6-2.1,4.6-4.6V2.9H5.9z M20.6,22.2
			c0,1.5-1.2,2.8-2.8,2.8h-7.3c-1.5,0-2.8-1.2-2.8-2.8V4.7h12.8V22.2z M9.6,14.8c0-0.5,0.4-0.9,0.9-0.9c0.5,0,0.9,0.4,0.9,0.9
			c0,0.5-0.4,0.9-0.9,0.9C10,15.7,9.6,15.3,9.6,14.8z M15.1,14.8c0,0.5-0.4,0.9-0.9,0.9c-0.5,0-0.9-0.4-0.9-0.9
			c0-0.5,0.4-0.9,0.9-0.9C14.7,13.9,15.1,14.3,15.1,14.8z M18.8,14.8c0,0.5-0.4,0.9-0.9,0.9s-0.9-0.4-0.9-0.9c0-0.5,0.4-0.9,0.9-0.9
			S18.8,14.3,18.8,14.8z M9.6,18.5c0-0.5,0.4-0.9,0.9-0.9c0.5,0,0.9,0.4,0.9,0.9c0,0.5-0.4,0.9-0.9,0.9C10,19.4,9.6,19,9.6,18.5z
			 M15.1,18.5c0,0.5-0.4,0.9-0.9,0.9c-0.5,0-0.9-0.4-0.9-0.9c0-0.5,0.4-0.9,0.9-0.9C14.7,17.6,15.1,18,15.1,18.5z M18.8,18.5v3.7
			c0,0.5-0.4,0.9-0.9,0.9s-0.9-0.4-0.9-0.9v-3.7c0-0.5,0.4-0.9,0.9-0.9S18.8,18,18.8,18.5z M9.6,22.2c0-0.5,0.4-0.9,0.9-0.9
			c0.5,0,0.9,0.4,0.9,0.9s-0.4,0.9-0.9,0.9C10,23.1,9.6,22.7,9.6,22.2z M15.1,22.2c0,0.5-0.4,0.9-0.9,0.9c-0.5,0-0.9-0.4-0.9-0.9
			s0.4-0.9,0.9-0.9C14.7,21.2,15.1,21.6,15.1,22.2z M18.8,6.6H9.6v5.5h9.2V6.6z M16.9,10.2h-5.5V8.4h5.5V10.2z"/>
	</g>
	<g id="XMLID_368_" class="st0">
		<path id="XMLID_369_" class="st1" d="M24.3,2.9H4.1c-2,0-3.7,1.6-3.7,3.7v14.2v1.8c0,2,1.6,4.1,3.7,4.1h20.2c2,0,3.7-2.1,3.7-4.1
			v-1.8V6.6C27.9,4.5,26.3,2.9,24.3,2.9z M24.3,24.9H4.1c-1,0-1.8-0.9-1.8-1.8h23.9C26.1,24,25.3,24.9,24.3,24.9z M26.1,21.2H2.3
			V6.6c0-1,0.8-1.8,1.8-1.8h20.2c1,0,1.8,0.8,1.8,1.8V21.2z M23.4,6.6H5C4.5,6.6,4.1,7,4.1,7.5v11.9h20.2V7.5
			C24.3,7,23.9,6.6,23.4,6.6z M22.4,17.6H5.9V8.4h16.5V17.6z"/>
	</g>
	<g id="XMLID_360_" class="st0">
		<path id="XMLID_361_" class="st1" d="M21.5,20.3c0,0.5-0.4,0.9-0.9,0.9c-0.5,0-0.9-0.4-0.9-0.9s0.4-0.9,0.9-0.9
			C21.1,19.4,21.5,19.8,21.5,20.3z M25.2,24.9V7.5h-1.8v17.4c0,1.5-1.2,2.8-2.8,2.8H7.8c-1.5,0-2.8-1.2-2.8-2.8V7.5H3.2v17.4
			c0,2.5,2.1,4.6,4.6,4.6h12.8C23.1,29.5,25.2,27.4,25.2,24.9z M21.5,14.8H6.8V9.3h14.7V14.8z M8.7,13h11v-1.8h-11V13z M27,5.6h-1.8
			V2h-22v3.7H1.3V0.1H27V5.6z M27,5.6H1.3v1.8H27V5.6z"/>
	</g>
	<g id="XMLID_356_" class="st0">
		<path id="XMLID_357_" class="st1" d="M14.2,7.1l2,5.1l0.4,1.1l1.2,0.1l5.1,0.2L18.6,17l-1.1,0.8l0.5,1.3l1.7,4.6l-4.4-3.1
			l-1.1-0.7l-1.1,0.7l-4.4,3.1l1.7-4.6l0.5-1.3L9.8,17l-4.3-3.4l5.1-0.2l1.2-0.1l0.4-1.1L14.2,7.1 M14.2,2l-3.7,9.6L0.4,12.1
			l8.3,6.4L5,28.6l9.2-6.4l9.2,6.4l-3.7-10.1l8.3-6.4l-10.1-0.5L14.2,2L14.2,2z"/>
	</g>
	<g id="XMLID_348_" class="st0">
		<path id="XMLID_349_" class="st1" d="M15.8,20.2l-1-1.5c1.3-0.8,2.1-2.2,2.1-3.8c0-1.6-0.8-3-2.1-3.8l1-1.5
			c1.8,1.1,2.9,3.1,2.9,5.4C18.8,17.1,17.6,19,15.8,20.2z M19.8,3.3l-1,1.5c3.3,2.1,5.4,5.8,5.4,10c0,4.2-2.2,7.9-5.4,10l1,1.5
			c3.8-2.5,6.3-6.7,6.3-11.5C26.1,10,23.6,5.7,19.8,3.3z M22.4,14.8c0-3.5-1.8-6.7-4.6-8.5l-1,1.5c2.3,1.5,3.8,4,3.8,6.9
			c0,2.9-1.5,5.4-3.8,6.9l1,1.5C20.6,21.5,22.4,18.4,22.4,14.8z M7.5,11.1l4.8-2.8v12.8l-4.8-2.8H2.3v-7.3H7.5z M4.1,16.6h1.8V13
			H4.1V16.6z M10.5,11.3l-2.8,1.8v3.4l2.8,1.6V11.3z"/>
	</g>
	<g id="XMLID_342_" class="st0">
		<path id="XMLID_343_" class="st1" d="M22.4,14.8c0,2.3-1.2,4.2-2.9,5.4l-1-1.5c1.3-0.8,2.1-2.2,2.1-3.8c0-1.6-0.8-3-2.1-3.8l1-1.5
			C21.3,10.6,22.4,12.6,22.4,14.8z M11.2,11.1L16,8.4v12.8l-4.8-2.8H5.9v-7.3H11.2z M7.8,16.6h1.8V13H7.8V16.6z M14.2,11.3l-2.8,1.8
			v3.4l2.8,1.6V11.3z"/>
	</g>
	<g id="XMLID_335_" class="st0">
		<path id="XMLID_336_" class="st1" d="M17.7,20.2l-1-1.5c1.3-0.8,2.1-2.2,2.1-3.8c0-1.6-0.8-3-2.1-3.8l1-1.5
			c1.8,1.1,2.9,3.1,2.9,5.4C20.6,17.1,19.4,19,17.7,20.2z M19.7,6.4l-1,1.5c2.3,1.5,3.8,4,3.8,6.9c0,2.9-1.5,5.4-3.8,6.9l1,1.5
			c2.8-1.8,4.6-4.9,4.6-8.5C24.3,11.3,22.4,8.2,19.7,6.4z M9.4,11.1l4.8-2.8v12.8l-4.8-2.8H4.1v-7.3H9.4z M5.9,16.6h1.8V13H5.9V16.6
			z M12.4,11.3l-2.8,1.8v3.4l2.8,1.6V11.3z"/>
	</g>
	<g id="XMLID_328_" class="st0">
		<path id="XMLID_329_" class="st1" d="M19.7,4.7V3.8h-1.8v0.9h-7.3V3.8H8.7v0.9H3.2v16.5c0,2.5,2.1,4.6,4.6,4.6h12.8
			c2.5,0,4.6-2.1,4.6-4.6V4.7H19.7z M8.7,6.6v1.8h1.8V6.6h7.3v1.8h1.8V6.6h3.7v3.7H5V6.6H8.7z M20.6,24H7.8C6.2,24,5,22.8,5,21.2
			v-9.2h18.3v9.2C23.4,22.8,22.1,24,20.6,24z M10.5,13.9h2.8v8.3h-1.8v-6.4h-0.9V13.9z M15.1,13.9h2.8v8.3H16v-6.4h-0.9V13.9z"/>
	</g>
	<g id="XMLID_322_" class="st0">
		<path id="XMLID_323_" class="st1" d="M24.3,2H4.1C1.6,2-0.5,4-0.5,6.6v12.8c0,2.5,2.1,4.6,4.6,4.6h5.5v1.8H7.8v1.8h12.8v-1.8h-1.8
			V24h5.5c2.5,0,4.6-2.1,4.6-4.6V6.6C28.9,4,26.8,2,24.3,2z M4.1,3.8h20.2C25.8,3.8,27,5,27,6.6v10.1H1.3V6.6C1.3,5,2.6,3.8,4.1,3.8
			z M16.9,25.8h-5.5V24h5.5V25.8z M24.3,22.2H4.1c-1.5,0-2.8-1.2-2.8-2.8v-0.9H27v0.9C27,20.9,25.8,22.2,24.3,22.2z"/>
	</g>
	<g id="XMLID_316_" class="st0">
		<path id="XMLID_317_" class="st1" d="M14.2,9.3c-3,0-5.5,2.5-5.5,5.5c0,3,2.5,5.5,5.5,5.5s5.5-2.5,5.5-5.5
			C19.7,11.8,17.2,9.3,14.2,9.3z M14.2,18.5c-2,0-3.7-1.6-3.7-3.7c0-2,1.6-3.7,3.7-3.7s3.7,1.6,3.7,3.7
			C17.9,16.8,16.2,18.5,14.2,18.5z M28.8,14.5c0-0.1-4-9.8-14.6-9.8s-14.6,9.7-14.6,9.8l-0.1,0.3l0.1,0.3c0,0.1,4,9.8,14.6,9.8
			s14.6-9.7,14.6-9.8l0.1-0.3L28.8,14.5z M14.2,23.1c-8.4,0-12-6.6-12.8-8.3c0.8-1.6,4.4-8.3,12.8-8.3c8.4,0,12,6.6,12.8,8.3
			C26.2,16.4,22.6,23.1,14.2,23.1z"/>
	</g>
	<g id="XMLID_305_" class="st0">
		<path id="XMLID_306_" class="st1" d="M3.2,3.8v3.7h-3.7v13.8c0,2.5,2.1,4.6,4.6,4.6h3.7h16.5c2.5,0,4.6-2.1,4.6-4.6V3.8H3.2z
			 M1.3,21.2V9.3h1.8v11.9c0,1,0.4,2,0.9,2.8h0C2.6,24,1.3,22.8,1.3,21.2z M27,21.2c0,1.5-1.2,2.8-2.8,2.8H7.8C6.2,24,5,22.8,5,21.2
			V5.6h22V21.2z M16.9,7.5H6.8v9.2h10.1V7.5z M15.1,14.8H8.7V9.3h6.4V14.8z M25.2,20.3H6.8v-1.8h18.3V20.3z M25.2,9.3h-6.4V7.5h6.4
			V9.3z M25.2,13h-6.4v-1.8h6.4V13z M25.2,16.6h-6.4v-1.8h6.4V16.6z"/>
	</g>
	<g id="XMLID_298_" class="st0">
		<path id="XMLID_299_" class="st1" d="M14.2,0.1L1.3,6.6v16.5l12.8,6.4L27,23.1V6.6L14.2,0.1z M24.6,7.4l-3.9,1.9L10.2,4.2l4-2
			L24.6,7.4z M14.2,12.4l-10.4-5l4.3-2.2l10.5,5.1L14.2,12.4z M3.2,9.2L13.3,14v13l-10.1-5V9.2z M15.1,27V14l4.6-2.2v3l1.8-0.9v-3
			l3.7-1.8v12.8L15.1,27z"/>
	</g>
	<g id="XMLID_289_" class="st0">
		<path id="XMLID_290_" class="st1" d="M14.2,1.1C6.6,1.1,0.4,7.2,0.4,14.8c0,7.6,6.2,13.8,13.8,13.8s13.8-6.2,13.8-13.8
			C27.9,7.2,21.8,1.1,14.2,1.1z M14.2,26.7c-6.6,0-11.9-5.4-11.9-11.9c0-6.6,5.4-11.9,11.9-11.9s11.9,5.4,11.9,11.9
			C26.1,21.4,20.8,26.7,14.2,26.7z M21.3,9L8.4,21.9l-1.3-1.3L20,7.7L21.3,9z M9.6,13.9c1.5,0,2.8-1.2,2.8-2.8V9.3
			c0-1.5-1.2-2.8-2.8-2.8S6.8,7.8,6.8,9.3v1.8C6.8,12.7,8.1,13.9,9.6,13.9z M8.7,9.3c0-0.5,0.4-0.9,0.9-0.9c0.5,0,0.9,0.4,0.9,0.9
			v1.8c0,0.5-0.4,0.9-0.9,0.9c-0.5,0-0.9-0.4-0.9-0.9V9.3z M18.8,15.7c-1.5,0-2.8,1.2-2.8,2.8v1.8c0,1.5,1.2,2.8,2.8,2.8
			c1.5,0,2.8-1.2,2.8-2.8v-1.8C21.5,17,20.3,15.7,18.8,15.7z M19.7,20.3c0,0.5-0.4,0.9-0.9,0.9s-0.9-0.4-0.9-0.9v-1.8
			c0-0.5,0.4-0.9,0.9-0.9s0.9,0.4,0.9,0.9V20.3z"/>
	</g>
	<g id="XMLID_281_" class="st0">
		<path id="XMLID_282_" class="st1" d="M1.3,1.1v27.5H27V1.1H1.3z M25.2,26.7h-22V2.9h22V26.7z M23.4,4.7H5v18.3h18.3V4.7z
			 M21.5,6.6v11.6l-2.6-3.9l-2.8,2.8l-3.7-4.6l-5.5,6.3V6.6H21.5z M21.3,21.2H7.1l5.2-5.9l3.6,4.5l2.7-2.7L21.3,21.2z M16,11.1
			c0-1,0.8-1.8,1.8-1.8c1,0,1.8,0.8,1.8,1.8S18.9,13,17.9,13C16.8,13,16,12.2,16,11.1z"/>
	</g>
	<g id="XMLID_276_" class="st0">
		<path id="XMLID_277_" class="st1" d="M6.8,5.6V4.7C6.8,3.2,5.6,2,4.1,2H1.3v1.8h2.8C4.6,3.8,5,4.2,5,4.7v13.8c0,2,1.4,3.8,3.2,4.4
			c-0.3,0.5-0.4,1-0.4,1.6c0,1.8,1.4,3.2,3.2,3.2s3.2-1.4,3.2-3.2c0-0.5-0.1-1-0.3-1.4h5.2c-0.2,0.4-0.3,0.9-0.3,1.4
			c0,1.8,1.4,3.2,3.2,3.2s3.2-1.4,3.2-3.2c0-1.8-1.4-3.2-3.2-3.2H9.6c-1.5,0-2.8-1.2-2.8-2.8v-11h18.3v7.3c0,1.5-1.2,2.8-2.8,2.8
			H10.5v1.8h11.9c2.5,0,4.6-2.1,4.6-4.6V5.6H6.8z M12.4,24.4c0,0.8-0.6,1.4-1.4,1.4s-1.4-0.6-1.4-1.4c0-0.8,0.6-1.4,1.4-1.4
			S12.4,23.7,12.4,24.4z M23.4,24.4c0,0.8-0.6,1.4-1.4,1.4c-0.8,0-1.4-0.6-1.4-1.4c0-0.8,0.6-1.4,1.4-1.4
			C22.7,23.1,23.4,23.7,23.4,24.4z"/>
	</g>
	<g id="XMLID_267_">
		<path id="XMLID_268_" d="M25.2,13.8c0.7-0.4,1.3-0.9,1.8-1.5v3.4c0,2.5-2.1,4.6-4.6,4.6H10.5v-1.8h11.9c1.5,0,2.8-1.2,2.8-2.8
			V13.8z M25.2,25.4c0,1.8-1.4,3.2-3.2,3.2s-3.2-1.4-3.2-3.2c0-0.5,0.1-1,0.3-1.4h-5.2c0.2,0.4,0.3,0.9,0.3,1.4
			c0,1.8-1.4,3.2-3.2,3.2c-1.8,0-3.2-1.4-3.2-3.2c0-0.6,0.2-1.1,0.4-1.6C6.4,23.2,5,21.4,5,19.4V5.6c0-0.5-0.4-0.9-0.9-0.9H1.3V2.9
			h2.8c1.5,0,2.8,1.2,2.8,2.8v0.9h7.4c0,0.3-0.1,0.6-0.1,0.9c0,0.3,0,0.6,0.1,0.9H6.8v11c0,1.5,1.2,2.8,2.8,2.8h11.9v0
			c0.2,0,0.3,0,0.5,0C23.8,22.2,25.2,23.6,25.2,25.4z M11,24c-0.8,0-1.4,0.6-1.4,1.4c0,0.8,0.6,1.4,1.4,1.4s1.4-0.6,1.4-1.4
			C12.4,24.6,11.7,24,11,24z M23.4,25.4c0-0.8-0.6-1.4-1.4-1.4c-0.8,0-1.4,0.6-1.4,1.4c0,0.8,0.6,1.4,1.4,1.4
			C22.7,26.7,23.4,26.1,23.4,25.4z M20.6,10.2h1.8V8.4h1.8V6.6h-1.8V4.7h-1.8v1.8h-1.8v1.8h1.8V10.2z M16,7.5c0-3,2.5-5.5,5.5-5.5
			c3,0,5.5,2.5,5.5,5.5c0,3-2.5,5.5-5.5,5.5C18.5,13,16,10.5,16,7.5z M17.9,7.5c0,2,1.6,3.7,3.7,3.7c2,0,3.7-1.6,3.7-3.7
			s-1.6-3.7-3.7-3.7C19.5,3.8,17.9,5.5,17.9,7.5z"/>
	</g>
	<g id="XMLID_258_" class="st0">
		<path id="XMLID_259_" class="st1" d="M25.2,13.8c0.7-0.4,1.3-0.9,1.8-1.5v3.4c0,2.5-2.1,4.6-4.6,4.6H10.5v-1.8h11.9
			c1.5,0,2.8-1.2,2.8-2.8V13.8z M25.2,25.4c0,1.8-1.4,3.2-3.2,3.2s-3.2-1.4-3.2-3.2c0-0.5,0.1-1,0.3-1.4h-5.2
			c0.2,0.4,0.3,0.9,0.3,1.4c0,1.8-1.4,3.2-3.2,3.2c-1.8,0-3.2-1.4-3.2-3.2c0-0.6,0.2-1.1,0.4-1.6C6.4,23.2,5,21.4,5,19.4V5.6
			c0-0.5-0.4-0.9-0.9-0.9H1.3V2.9h2.8c1.5,0,2.8,1.2,2.8,2.8v0.9h7.4c0,0.3-0.1,0.6-0.1,0.9c0,0.3,0,0.6,0.1,0.9H6.8v11
			c0,1.5,1.2,2.8,2.8,2.8h11.9v0c0.2,0,0.3,0,0.5,0C23.8,22.2,25.2,23.6,25.2,25.4z M11,24c-0.8,0-1.4,0.6-1.4,1.4
			c0,0.8,0.6,1.4,1.4,1.4s1.4-0.6,1.4-1.4C12.4,24.6,11.7,24,11,24z M23.4,25.4c0-0.8-0.6-1.4-1.4-1.4c-0.8,0-1.4,0.6-1.4,1.4
			c0,0.8,0.6,1.4,1.4,1.4C22.7,26.7,23.4,26.1,23.4,25.4z M24.3,6.6h-5.5v1.8h5.5V6.6z M16,7.5c0-3,2.5-5.5,5.5-5.5
			c3,0,5.5,2.5,5.5,5.5c0,3-2.5,5.5-5.5,5.5C18.5,13,16,10.5,16,7.5z M17.9,7.5c0,2,1.6,3.7,3.7,3.7c2,0,3.7-1.6,3.7-3.7
			s-1.6-3.7-3.7-3.7C19.5,3.8,17.9,5.5,17.9,7.5z"/>
	</g>
	<g id="XMLID_253_" class="st0">
		<path id="XMLID_254_" class="st1" d="M14.2,1.1C6.6,1.1,0.4,7.2,0.4,14.8c0,7.6,6.2,13.8,13.8,13.8s13.8-6.2,13.8-13.8
			C27.9,7.2,21.8,1.1,14.2,1.1z M14.2,26.7c-6.6,0-11.9-5.4-11.9-11.9c0-6.6,5.4-11.9,11.9-11.9s11.9,5.4,11.9,11.9
			C26.1,21.4,20.8,26.7,14.2,26.7z M15.1,13.9h7.3v1.8h-9.2v-11h1.8V13.9z"/>
	</g>
	<g id="XMLID_247_" class="st0">
		<path id="XMLID_248_" class="st1" d="M24.3,3.8H4.1c-2.5,0-4.6,2.1-4.6,4.6v12.8c0,2.5,2.1,4.6,4.6,4.6h20.2
			c2.5,0,4.6-2.1,4.6-4.6V8.4C28.9,5.9,26.8,3.8,24.3,3.8z M4.1,5.6h20.2c1.5,0,2.8,1.2,2.8,2.8v0.9H1.3V8.4
			C1.3,6.9,2.6,5.6,4.1,5.6z M27,11.1V13H1.3v-1.8H27z M24.3,24H4.1c-1.5,0-2.8-1.2-2.8-2.8v-6.4H27v6.4C27,22.8,25.8,24,24.3,24z"
			/>
	</g>
	<g id="XMLID_241_" class="st0">
		<path id="XMLID_242_" class="st1" d="M24.3,3.8H3.2c-2,0-3.7,1.6-3.7,3.7h0c0,0,0,0,0,0v0v13.8c0,2.5,2.1,4.6,4.6,4.6h20.2
			c2.5,0,4.6-2.1,4.6-4.6V8.4C28.9,5.9,26.8,3.8,24.3,3.8z M1.3,7.5c0-1,0.8-1.8,1.8-1.8h21.1c1.5,0,2.8,1.2,2.8,2.8v1.4
			c-0.6-0.3-1.3-0.5-1.8-0.5h-22C1.5,9.3,1.3,7.9,1.3,7.5L1.3,7.5z M27,21.2c0,1.5-1.2,2.8-2.8,2.8H4.1c-1.5,0-2.8-1.2-2.8-2.8V10.7
			c0.5,0.3,1.1,0.4,1.8,0.4h22c0.2,0,1.8,0.1,1.8,1.8V21.2z M25.2,17.6c0,1-0.8,1.8-1.8,1.8c-1,0-1.8-0.8-1.8-1.8
			c0-1,0.8-1.8,1.8-1.8C24.4,15.7,25.2,16.6,25.2,17.6z"/>
	</g>
	<g id="XMLID_237_" class="st0">
		<path id="XMLID_238_" class="st1" d="M23.4,13.1C23.4,13,23.4,13,23.4,13.1c0-5.1-4.1-9.2-9.2-9.2c-4.5,0-8.3,3.2-9,7.5
			c0,0,0,0,0,0c-1,0.2-1.9,0.7-2.7,1.3c0,0,0,0,0,0c-0.2,0.1-0.3,0.2-0.4,0.4c0,0,0,0,0,0c-0.7,0.7-1.3,1.5-1.7,2.4c0,0,0,0,0,0
			C0.1,15.6,0,15.8,0,15.9c0,0.1,0,0.1-0.1,0.2c0,0.1-0.1,0.3-0.1,0.4c0,0.1-0.1,0.2-0.1,0.3c0,0.1-0.1,0.2-0.1,0.3
			c0,0.1,0,0.3-0.1,0.4c0,0.1,0,0.2,0,0.3c0,0.2,0,0.5,0,0.7c0,4,3.3,7.3,7.3,7.3h15.6c3.5,0,6.4-2.9,6.4-6.4
			C28.9,16.2,26.5,13.5,23.4,13.1z M22.4,24H6.8c-3,0-5.5-2.5-5.5-5.5c0-0.3,0-0.6,0.1-1c0,0,0,0,0-0.1c0.1-0.3,0.1-0.6,0.3-0.9
			c0,0,0,0,0-0.1c0.1-0.3,0.3-0.6,0.4-0.8c0,0,0,0,0,0c0.8-1.4,2.3-2.4,4-2.6l0.2,0c0.2,0,0.3,0,0.5,0c2.4,0,4.5,1.5,5.2,3.8
			l1.7-0.6c-1-2.9-3.7-4.9-6.7-5c0.8-3.2,3.7-5.5,7.1-5.5c4,0,7.3,3.3,7.3,7.3c0,0.3,0,0.6,0,0.8l-0.1,1h1c2.5,0,4.6,2.1,4.6,4.6
			C27,21.9,25,24,22.4,24z"/>
	</g>
	<g id="XMLID_230_" class="st0">
		<path id="XMLID_231_" class="st1" d="M-0.5,3.8v22h29.4v-22H-0.5z M14.2,16.3L2.8,5.6h22.9L14.2,16.3z M7.7,12.8L1.3,22V6.8
			L7.7,12.8z M9.1,14l5.1,4.8l5.1-4.8l6.9,9.9h-24L9.1,14z M20.7,12.8L27,6.8V22L20.7,12.8z"/>
	</g>
	<g id="XMLID_221_" class="st0">
		<path id="XMLID_222_" class="st1" d="M14.2,1.1C6.6,1.1,0.4,7.2,0.4,14.8c0,7.6,6.2,13.8,13.8,13.8s13.8-6.2,13.8-13.8
			C27.9,7.2,21.8,1.1,14.2,1.1z M26.1,13.9h-6.7c-0.1-4.2-0.9-8.2-2.2-10.6C22,4.5,25.7,8.8,26.1,13.9z M14.2,26.7
			c-1.3,0-3.2-4.3-3.3-11h6.7C17.4,22.5,15.5,26.7,14.2,26.7z M10.8,13.9c0.2-6.7,2-11,3.3-11s3.2,4.3,3.3,11H10.8z M11.2,3.3
			C9.9,5.7,9.1,9.7,9,13.9H2.3C2.7,8.8,6.4,4.5,11.2,3.3z M2.3,15.7H9c0.1,4.2,0.9,8.2,2.2,10.6C6.4,25.1,2.7,20.9,2.3,15.7z
			 M17.1,26.4c1.4-2.4,2.1-6.5,2.2-10.6h6.7C25.7,20.9,22,25.1,17.1,26.4z"/>
	</g>
	<g id="XMLID_215_" class="st0">
		<path id="XMLID_216_" class="st1" d="M26.9,2.1L13.4,0L0.8,12.7c-1.8,1.8-1.8,4.7,0,6.5l9.1,9.1c0.9,0.9,2,1.3,3.2,1.3
			c1.2,0,2.4-0.5,3.2-1.3L29,15.6L26.9,2.1z M15,26.9c-1,1-2.9,1-3.9,0l-9.1-9.1C1,16.8,1,15,2.1,14l12-12l11.2,1.8L27,14.9L15,26.9
			z M19.6,5.7c-0.9,0-1.9,0.4-2.6,1.1c-1.4,1.4-1.4,3.8,0,5.2c0.7,0.7,1.7,1.1,2.6,1.1s1.9-0.4,2.6-1.1c1.4-1.4,1.4-3.8,0-5.2
			C21.5,6.1,20.5,5.7,19.6,5.7z M20.9,10.7c-0.3,0.3-0.8,0.5-1.3,0.5c-0.5,0-1-0.2-1.3-0.5c-0.7-0.7-0.7-1.9,0-2.6
			c0.3-0.3,0.8-0.5,1.3-0.5c0.5,0,1,0.2,1.3,0.5C21.6,8.8,21.6,10,20.9,10.7z"/>
	</g>
	<g id="XMLID_209_" class="st0">
		<path id="XMLID_210_" class="st1" d="M20.2,1.6c-2.5-1.4-5.1-1.5-5.9-1.5l-0.1,0l-0.2,0c-1.1,0-10.9,0.3-10.9,11
			c0,10.4,10,17.9,10.5,18.2l0.5,0.4l0.5-0.4c0.4-0.3,10.5-7.7,10.5-18.2C25.2,5.6,22.5,2.9,20.2,1.6z M14.2,27.4
			c-2-1.7-9.2-8.1-9.2-16.3C5,2.4,12.5,2,14,2l0.2,0l0.1,0c1.5,0,9,0.4,9,9.2C23.4,19.3,16.2,25.7,14.2,27.4z M14.2,5.6
			c-3,0-5.5,2.5-5.5,5.5s2.5,5.5,5.5,5.5s5.5-2.5,5.5-5.5S17.2,5.6,14.2,5.6z M14.2,14.8c-2,0-3.7-1.6-3.7-3.7c0-2,1.6-3.7,3.7-3.7
			s3.7,1.6,3.7,3.7C17.9,13.2,16.2,14.8,14.2,14.8z"/>
	</g>
	<g id="XMLID_205_" class="st0">
		<path id="XMLID_206_" class="st1" d="M21.1,1.1c0,0-0.2,0-0.5,0c-1,0-4.1,0.2-6.5,2.9C11.8,1.3,8.7,1,7.7,1c-0.3,0-0.4,0-0.4,0
			c0,0,0,0,0,0C7,1.1,0.4,1.6,0.4,9.7c0,7.8,12.6,18.2,13.2,18.7l0.6,0.5l0.6-0.5c0.5-0.4,13.2-10.9,13.2-18.7
			C27.9,1.5,21.1,1.1,21.1,1.1z M14.2,26.4C11.7,24.3,2.3,15.7,2.3,9.7c0-6.4,4.9-6.8,5.2-6.8c0,0,0.1,0,0.3,0c1.1,0,3.9,0.3,5.7,3
			l0.8,1.1l0.8-1.1c1.8-2.7,4.6-3,5.7-3c0.2,0,0.3,0,0.3,0c0.2,0,5.1,0.3,5.1,6.8C26.1,15.7,16.7,24.3,14.2,26.4z"/>
	</g>
	<g id="XMLID_200_" class="st0">
		<path id="XMLID_201_" class="st1" d="M28.2,15.1l-14-14.9l-14,14.9l1.3,1.3l1.6-1.7v14.9h22V14.6l1.6,1.7L28.2,15.1z M16,27.7
			h-3.7v-8.3H16V27.7z M23.4,27.7h-5.5V17.6h-7.3v10.1H5v-15l9.2-9.8l9.2,9.8V27.7z"/>
	</g>
	<g id="XMLID_194_" class="st0">
		<path id="XMLID_195_" class="st1" d="M21.5,13V7.5c0-4-3.3-7.3-7.3-7.3c-4,0-7.3,3.3-7.3,7.3V13H3.2v11.9c0,2.5,2.1,4.6,4.6,4.6
			h12.8c2.5,0,4.6-2.1,4.6-4.6V13H21.5z M8.7,7.5c0-3,2.5-5.5,5.5-5.5s5.5,2.5,5.5,5.5V13h-11V7.5z M23.4,24.9
			c0,1.5-1.2,2.8-2.8,2.8H7.8c-1.5,0-2.8-1.2-2.8-2.8V14.8h18.3V24.9z M15.1,24h-1.8v-5.5h1.8V24z"/>
	</g>
	<g id="XMLID_189_" class="st0">
		<path id="XMLID_190_" class="st1" d="M15.5,0.1H3.2v29.4h22V9.8L15.5,0.1z M16,3.3l6,6h-6V3.3z M5,27.7V2h9.2v9.2h9.2v16.5H5z"/>
	</g>
	<g id="XMLID_181_" class="st0">
		<path id="XMLID_182_" class="st1" d="M18.8,3.8V0.1H9.6v3.7H2.3v1.8h23.9V3.8H18.8z M11.4,2h5.5v1.8h-5.5V2z M22.4,7.5h1.8v17.4
			c0,2.5-2.1,4.6-4.6,4.6h-11c-2.5,0-4.6-2.1-4.6-4.6V7.5h1.8v17.4c0,1.5,1.2,2.8,2.8,2.8h11c1.5,0,2.8-1.2,2.8-2.8V7.5z M10.5,9.3
			v15.6H8.7V9.3H10.5z M15.1,9.3v15.6h-1.8V9.3H15.1z M19.7,24.9h-1.8V9.3h1.8V24.9z"/>
	</g>
	<g id="XMLID_176_" class="st0">
		<path id="XMLID_177_" class="st1" d="M21.5,13V7.5c0-4-3.3-7.3-7.3-7.3c-2,0-3.8,0.8-5.2,2.1l1.3,1.3c1-1,2.4-1.6,3.9-1.6
			c3,0,5.5,2.5,5.5,5.5V13H3.2v11.9c0,2.5,2.1,4.6,4.6,4.6h12.8c2.5,0,4.6-2.1,4.6-4.6V13H21.5z M23.4,24.9c0,1.5-1.2,2.8-2.8,2.8
			H7.8c-1.5,0-2.8-1.2-2.8-2.8V14.8h18.3V24.9z M15.1,24h-1.8v-5.5h1.8V24z"/>
	</g>
	<g id="XMLID_171_" class="st0">
		<path id="XMLID_172_" class="st1" d="M28.6,28.8l-7.5-7.5c2-2.3,3.1-5.2,3.1-8.4c0-7.1-5.8-12.8-12.8-12.8C4.3,0.1-1.4,5.9-1.4,13
			c0,7.1,5.8,12.8,12.8,12.8c3.2,0,6.1-1.2,8.4-3.1l7.5,7.5L28.6,28.8z M0.4,13c0-6.1,4.9-11,11-11c6.1,0,11,4.9,11,11
			c0,6.1-4.9,11-11,11C5.4,24,0.4,19.1,0.4,13z M12.4,12.1H16v1.8h-3.7v3.7h-1.8v-3.7H6.8v-1.8h3.7V8.4h1.8V12.1z"/>
	</g>
	<g id="XMLID_166_" class="st0">
		<path id="XMLID_167_" class="st1" d="M28.6,28.8l-7.5-7.5c2-2.3,3.1-5.2,3.1-8.4c0-7.1-5.8-12.8-12.8-12.8C4.3,0.1-1.4,5.9-1.4,13
			c0,7.1,5.8,12.8,12.8,12.8c3.2,0,6.1-1.2,8.4-3.1l7.5,7.5L28.6,28.8z M0.4,13c0-6.1,4.9-11,11-11c6.1,0,11,4.9,11,11
			c0,6.1-4.9,11-11,11C5.4,24,0.4,19.1,0.4,13z M6.8,12.1H16v1.8H6.8V12.1z"/>
	</g>
	<g id="XMLID_162_" class="st0">
		<path id="XMLID_163_" class="st1" d="M28.6,29.8l-7.5-7.5c2-2.3,3.1-5.2,3.1-8.4c0-7.1-5.8-12.8-12.8-12.8
			C4.3,1.1-1.4,6.8-1.4,13.9s5.8,12.8,12.8,12.8c3.2,0,6.1-1.2,8.4-3.1l7.5,7.5L28.6,29.8z M0.4,13.9c0-6.1,4.9-11,11-11
			c6.1,0,11,4.9,11,11s-4.9,11-11,11C5.4,24.9,0.4,20,0.4,13.9z"/>
	</g>
</g>
</svg>
