<?xml version="1.0" encoding="utf-8"?>
<!-- Generator: Adobe Illustrator 19.0.0, SVG Export Plug-In . SVG Version: 6.00 Build 0)  -->
<svg version="1.1" id="Capa_1" xmlns="http://www.w3.org/2000/svg" xmlns:xlink="http://www.w3.org/1999/xlink" x="0px" y="0px"
	 viewBox="0 0 52 36" style="enable-background:new 0 0 52 36;" xml:space="preserve">
<style type="text/css">
	.st0{fill:#FFFFFF;}
</style>
<g id="XMLID_8_">
	<path id="XMLID_6_" class="st0" d="M21.6,33.8c-1.2,1.2-3.3,1.2-4.5,0c-1.2-1.2-1.2-3.3,0-4.5c1.2-1.2,3.3-1.2,4.5,0
		C22.9,30.6,22.9,32.6,21.6,33.8L21.6,33.8z"/>
	<path id="XMLID_5_" class="st0" d="M14.8,27c-1.2,1.2-3.3,1.2-4.5,0c-1.2-1.2-1.2-3.3,0-4.5c1.2-1.2,3.3-1.2,4.5,0
		C16.1,23.8,16.1,25.8,14.8,27L14.8,27z"/>
	<path id="XMLID_4_" class="st0" d="M8,20.2c-1.2,1.2-3.3,1.2-4.5,0c-1.2-1.2-1.2-3.3,0-4.5c1.2-1.2,3.3-1.2,4.5,0
		C9.3,17,9.3,19,8,20.2L8,20.2z"/>
	<path id="XMLID_3_" class="st0" d="M21.6,20.2c-1.2,1.2-3.3,1.2-4.5,0c-1.2-1.2-1.2-3.3,0-4.5c1.2-1.2,3.3-1.2,4.5,0
		C22.9,17,22.9,19,21.6,20.2L21.6,20.2z"/>
	<path id="XMLID_2_" class="st0" d="M14.8,13.5c-1.2,1.2-3.3,1.2-4.5,0c-1.2-1.2-1.2-3.3,0-4.5c1.2-1.2,3.3-1.2,4.5,0
		C16.1,10.2,16.1,12.2,14.8,13.5L14.8,13.5z"/>
	<path id="XMLID_1_" class="st0" d="M21.6,6.7c-1.2,1.2-3.3,1.2-4.5,0c-1.2-1.2-1.2-3.3,0-4.5c1.2-1.2,3.3-1.2,4.5,0
		C22.9,3.4,22.9,5.4,21.6,6.7L21.6,6.7z"/>
</g>
<g id="XMLID_9_">
	<path id="XMLID_15_" class="st0" d="M30.2,2.2c1.2-1.2,3.3-1.2,4.5,0c1.2,1.2,1.2,3.3,0,4.5c-1.2,1.2-3.3,1.2-4.5,0
		C29,5.4,29,3.4,30.2,2.2L30.2,2.2z"/>
	<path id="XMLID_14_" class="st0" d="M37,9c1.2-1.2,3.3-1.2,4.5,0c1.2,1.2,1.2,3.3,0,4.5c-1.2,1.2-3.3,1.2-4.5,0
		C35.8,12.2,35.8,10.2,37,9L37,9z"/>
	<path id="XMLID_13_" class="st0" d="M43.8,15.8c1.2-1.2,3.3-1.2,4.5,0c1.2,1.2,1.2,3.3,0,4.5c-1.2,1.2-3.3,1.2-4.5,0
		C42.6,19,42.6,17,43.8,15.8L43.8,15.8z"/>
	<path id="XMLID_12_" class="st0" d="M30.2,15.8c1.2-1.2,3.3-1.2,4.5,0c1.2,1.2,1.2,3.3,0,4.5c-1.2,1.2-3.3,1.2-4.5,0
		C29,19,29,17,30.2,15.8L30.2,15.8z"/>
	<path id="XMLID_11_" class="st0" d="M37,22.5c1.2-1.2,3.3-1.2,4.5,0c1.2,1.2,1.2,3.3,0,4.5c-1.2,1.2-3.3,1.2-4.5,0
		C35.8,25.8,35.8,23.8,37,22.5L37,22.5z"/>
	<path id="XMLID_10_" class="st0" d="M30.2,29.3c1.2-1.2,3.3-1.2,4.5,0c1.2,1.2,1.2,3.3,0,4.5c-1.2,1.2-3.3,1.2-4.5,0
		C29,32.6,29,30.6,30.2,29.3L30.2,29.3z"/>
</g>
</svg>
