<?xml version="1.0" encoding="utf-8"?>
<!-- Generator: Adobe Illustrator 19.0.0, SVG Export Plug-In . SVG Version: 6.00 Build 0)  -->
<svg version="1.1" xmlns="http://www.w3.org/2000/svg" xmlns:xlink="http://www.w3.org/1999/xlink" x="0px" y="0px"
	 viewBox="0 0 80 80" style="enable-background:new 0 0 80 80;" xml:space="preserve">
<style type="text/css">
	.st0{fill:#3B693D;}
	.st1{display:none;}
	.st2{display:inline;}
</style>
<g id="Capa_1">
	<g id="XMLID_1_">
		<g id="XMLID_79_">
			<path id="XMLID_4_" class="st0" d="M39.7,79c-21.5,0-39-17.5-39-39c0-21.5,17.5-39,39-39c21.5,0,39,17.5,39,39
				C78.7,61.5,61.2,79,39.7,79z M39.7,3.5C19.6,3.5,3.2,19.9,3.2,40c0,20.1,16.4,36.5,36.5,36.5c20.1,0,36.5-16.4,36.5-36.5
				C76.2,19.9,59.8,3.5,39.7,3.5z"/>
		</g>
		<g id="XMLID_5_">
			<path id="XMLID_6_" class="st0" d="M37.2,37.2l-5.1-7v7h-2.3V26.6h2.3l4.9,6.7v-6.7h2.3v10.7H37.2z"/>
			<path id="XMLID_8_" class="st0" d="M41,31.9c0-3.2,2.4-5.5,5.6-5.5c3.2,0,5.6,2.3,5.6,5.5s-2.4,5.5-5.6,5.5
				C43.4,37.4,41,35.1,41,31.9z M49.8,31.9c0-2-1.3-3.5-3.2-3.5c-2,0-3.2,1.5-3.2,3.5c0,2,1.3,3.5,3.2,3.5
				C48.6,35.4,49.8,33.9,49.8,31.9z"/>
			<path id="XMLID_11_" class="st0" d="M33.3,56.4v-4.5h-5v4.5H26V45.7h2.3v4.2h5v-4.2h2.3v10.7H33.3z"/>
			<path id="XMLID_13_" class="st0" d="M37.7,56.4V45.7h5c2.3,0,3.6,1.6,3.6,3.4c0,1.9-1.3,3.4-3.6,3.4h-2.7v3.8H37.7z M43.9,49.2
				c0-0.9-0.7-1.4-1.6-1.4h-2.4v2.9h2.4C43.2,50.6,43.9,50.1,43.9,49.2z"/>
			<path id="XMLID_16_" class="st0" d="M47.7,56.4V45.7h5c2.3,0,3.6,1.6,3.6,3.4c0,1.9-1.3,3.4-3.6,3.4h-2.7v3.8H47.7z M53.9,49.2
				c0-0.9-0.7-1.4-1.6-1.4h-2.4v2.9h2.4C53.2,50.6,53.9,50.1,53.9,49.2z"/>
		</g>
	</g>
</g>
<g id="Capa_2" class="st1">
	<g id="XMLID_147_" class="st2">
		<g id="XMLID_263_" sketch:type="MSPage">
			<g id="XMLID_264_" transform="translate(-180.000000, -180.000000)" sketch:type="MSArtboardGroup">
				<g id="XMLID_265_" transform="translate(180.000000, 180.000000)" sketch:type="MSLayerGroup">
					<path id="XMLID_267_" class="st0" d="M40,1C18.4,1,1,18.5,1,40c0,21.5,17.5,39,39,39c21.5,0,39-17.5,39-39C79,18.5,61.5,1,40,1
						z M41.3,3.6c19.1,0.7,34.4,16,35.1,35.1H41.3V3.6z M38.7,3.6v35.1H3.6C4.2,19.6,19.6,4.3,38.7,3.6z M40,76.4
						c-19.7,0-35.7-15.6-36.4-35.1h72.7C75.6,60.8,59.6,76.4,40,76.4z"/>
					<path id="XMLID_266_" sketch:type="MSShapeGroup" class="st0" d="M24.1,30.7l-6,3.2l1.1-6.7l-4.8-4.8l6.7-1l3-6.1l3,6.1l6.7,1
						L29,27.2l1.1,6.7L24.1,30.7z"/>
				</g>
			</g>
		</g>
		<g id="XMLID_149_">
			<path id="XMLID_260_" class="st0" d="M15.5,50.9H14v1.7h-1.1v-4.5c0-0.3,0.3-0.6,0.6-0.6h2.1c1,0,1.7,0.8,1.7,1.7
				C17.2,50.1,16.5,50.9,15.5,50.9z M15.3,48.4H14v1.5h1.3c0.4,0,0.7-0.3,0.7-0.8C16,48.8,15.7,48.4,15.3,48.4z"/>
			<path id="XMLID_257_" class="st0" d="M23.3,52.6l-1-1.8H21v1.8h-1.1v-4.5c0-0.3,0.3-0.6,0.6-0.6h2.3c1,0,1.7,0.7,1.7,1.6
				c0,0.6-0.4,1.2-0.9,1.4l1.1,2H23.3z M22.5,48.4H21v1.4h1.5c0.4,0,0.7-0.3,0.7-0.7C23.2,48.7,22.9,48.4,22.5,48.4z"/>
			<path id="XMLID_254_" class="st0" d="M29.7,52.7c-1.5,0-2.6-1.2-2.6-2.6c0-1.4,1.1-2.6,2.6-2.6s2.6,1.2,2.6,2.6
				C32.3,51.5,31.2,52.7,29.7,52.7z M29.7,48.5c-0.9,0-1.5,0.7-1.5,1.6c0,0.9,0.6,1.6,1.5,1.6c0.9,0,1.5-0.7,1.5-1.6
				C31.1,49.1,30.6,48.5,29.7,48.5z"/>
			<path id="XMLID_210_" class="st0" d="M36.3,52.6h-0.6c-0.3,0-0.6-0.3-0.6-0.6v-3.9c0-0.3,0.3-0.6,0.6-0.6h0.6
				c2.1,0,3.2,1,3.2,2.5C39.6,51.5,38.4,52.6,36.3,52.6z M36.5,48.5h-0.2v3h0.2c1,0,1.8-0.4,1.8-1.5C38.4,49,37.5,48.5,36.5,48.5z"
				/>
			<path id="XMLID_205_" class="st0" d="M44.6,52.7c-1.4,0-2.3-1-2.3-2.2v-2.9h1.1v2.9c0,0.7,0.5,1.2,1.1,1.2c0.7,0,1.1-0.4,1.1-1.2
				v-2.9h1.1v2.9C46.9,51.6,46,52.7,44.6,52.7z"/>
			<path id="XMLID_199_" class="st0" d="M53.7,48.6c-0.3-0.1-0.7-0.2-1.1-0.2c-1.2,0-1.8,0.7-1.8,1.6c0,0.9,0.6,1.6,1.8,1.6
				c0.4,0,0.8-0.1,1.1-0.2l0.2,0.9c-0.4,0.2-0.9,0.3-1.4,0.3c-1.7,0-2.8-1.1-2.8-2.6c0-1.5,1.1-2.6,2.8-2.6c0.6,0,1.1,0.1,1.5,0.2
				L53.7,48.6z"/>
			<path id="XMLID_194_" class="st0" d="M59.2,48.5v4.1H58v-4.1h-1.7v-1h4.4v1H59.2z"/>
			<path id="XMLID_188_" class="st0" d="M65.7,52.7c-1.5,0-2.6-1.2-2.6-2.6c0-1.4,1.1-2.6,2.6-2.6s2.6,1.2,2.6,2.6
				C68.3,51.5,67.2,52.7,65.7,52.7z M65.7,48.5c-0.9,0-1.5,0.7-1.5,1.6c0,0.9,0.6,1.6,1.5,1.6c0.9,0,1.5-0.7,1.5-1.6
				C67.2,49.1,66.6,48.5,65.7,48.5z"/>
			<path id="XMLID_183_" class="st0" d="M21.7,57.7c-0.3-0.1-0.7-0.2-1.1-0.2c-1.2,0-1.8,0.7-1.8,1.6c0,0.9,0.6,1.6,1.8,1.6
				c0.4,0,0.8-0.1,1.1-0.2l0.2,0.9c-0.4,0.2-0.9,0.3-1.4,0.3c-1.7,0-2.8-1.1-2.8-2.6c0-1.5,1.1-2.6,2.8-2.6c0.6,0,1.1,0.1,1.5,0.2
				L21.7,57.7z"/>
			<path id="XMLID_178_" class="st0" d="M28.3,61.7v-2H26v2h-1.1v-5H26v2h2.3v-2h1.1v5H28.3z"/>
			<path id="XMLID_172_" class="st0" d="M32.7,61.7v-5h1.1v5H32.7z"/>
			<path id="XMLID_169_" class="st0" d="M37.7,61.7c-0.3,0-0.6-0.3-0.6-0.6v-4.5h1.1v4.1h2.6v1H37.7z"/>
			<path id="XMLID_163_" class="st0" d="M44.2,61.7c-0.3,0-0.6-0.3-0.6-0.6v-3.9c0-0.3,0.3-0.6,0.6-0.6h3.1v1h-2.6v1h1.8
				c0.3,0,0.5,0.2,0.5,0.5c0,0.3-0.2,0.5-0.5,0.5h-1.8v1.1h2.6v1H44.2z"/>
			<path id="XMLID_158_" class="st0" d="M54.5,61.7c-0.2,0-0.4,0-0.5-0.2l-2.5-2.9v3.1h-1.1v-4.5c0-0.3,0.3-0.6,0.6-0.6
				c0.2,0,0.3,0,0.4,0.2c0,0,0.8,0.9,2.5,2.9v-3.1H55v4.5C55,61.4,54.8,61.7,54.5,61.7z"/>
			<path id="XMLID_152_" class="st0" d="M60.5,61.7c-1.5,0-2.6-1.2-2.6-2.6c0-1.4,1.1-2.6,2.6-2.6s2.6,1.2,2.6,2.6
				C63.1,60.6,62,61.7,60.5,61.7z M60.5,57.6c-0.9,0-1.5,0.7-1.5,1.6c0,0.9,0.6,1.6,1.5,1.6c0.9,0,1.5-0.7,1.5-1.6
				C62,58.2,61.4,57.6,60.5,57.6z"/>
		</g>
	</g>
</g>
<g id="Capa_4" class="st1">
	<g id="XMLID_137_" class="st2">
		<path id="XMLID_71_" class="st0" d="M39.8,79c-21.5,0-39-17.5-39-39c0-21.5,17.5-39,39-39c21.5,0,39,17.5,39,39
			C78.8,61.5,61.3,79,39.8,79z M39.8,3.5C19.7,3.5,3.3,19.9,3.3,40c0,20.1,16.4,36.5,36.5,36.5c20.1,0,36.5-16.4,36.5-36.5
			C76.3,19.9,59.9,3.5,39.8,3.5z"/>
		<g id="XMLID_138_">
			<g id="XMLID_212_">
				<path id="XMLID_219_" class="st0" d="M51.2,46.4c2.2,0,4.4,0,4.4,0c1.3,0,2.6-0.7,3.3-1.9c0.7-1.2,0.7-2.6,0-3.8
					c0,0-2.4-4.1-4.2-7.3l-8.2,4.7L51.2,46.4z"/>
				<path id="XMLID_218_" class="st0" d="M41.5,23.4c0.9-1.5,2.4-2.4,4.1-2.4H33.9c-1.2,0-2.3,0.7-2.9,1.7c-1,1.7-5,8.6-5,8.6
					l8.2,4.7C34.3,36,40.4,25.4,41.5,23.4z"/>
				<path id="XMLID_217_" class="st0" d="M30.5,42.7l3,1.7c0,0.1,0.1,0.1,0.1,0L29,35.7l-9.8,0.5l3,1.8L20,42.1
					c-0.6,1-0.6,2.2,0,3.3l5.9,10.2c-0.9-1.5-0.9-3.3,0-4.8L30.5,42.7z"/>
				<path id="XMLID_216_" class="st0" d="M26.6,51.3c-0.7,1.2-0.7,2.6,0,3.8c0.7,1.2,1.9,1.9,3.3,1.9h8.5v-9.4h-9.5
					C27.7,49.5,26.6,51.3,26.6,51.3z"/>
				<path id="XMLID_215_" class="st0" d="M53.5,25.1C53.6,25.1,53.6,25,53.5,25.1L53.5,25.1L53.5,25.1l-3,1.7
					c-0.1-0.2-1.2-2.1-1.7-2.9c-0.7-1.2-1.9-1.9-3.2-1.9c-1.3,0-2.6,0.7-3.2,1.9c0,0-1.1,1.9-2.2,3.8l2.2,3.7l-3.1,1.8l0.2,0
					l-0.1,0.1c0,0,1,0,2.3,0.1l7.5,0.4L53.5,25.1z"/>
				<path id="XMLID_213_" class="st0" d="M55.5,47.4h-9.3l0-3.5c0,0,0,0,0,0v0l-5.3,8.3l5.3,8.2v0c0,0,0,0,0,0l0-3.5h4.7
					c1.1,0,2.3-0.6,2.9-1.6l5.9-10.2C58.8,46.5,57.2,47.5,55.5,47.4z"/>
			</g>
		</g>
	</g>
</g>
<g id="Capa_3" class="st1">
	<g id="XMLID_20_" class="st2">
		<path id="XMLID_110_" class="st0" d="M43,48.9V25.8c0-2.4-1.6-4.4-3.6-4.4c-2,0-3.6,2-3.6,4.4v23.1c-1.5,1.1-2.5,2.9-2.5,4.9
			c0,3.4,2.7,6.1,6.1,6.1c3.4,0,6.1-2.7,6.1-6.1C45.5,51.8,44.5,50,43,48.9z M39.4,57.9c-2.3,0-4.1-1.8-4.1-4.1
			c0-0.7,0.2-1.3,0.5-1.9c0.4-0.7,1-1.4,1.8-1.7V48V25.8c0-1.2,0.8-2.3,1.9-2.3c1,0,1.9,1,1.9,2.3V48v2.2c0.8,0.4,1.4,1,1.8,1.7
			c0.3,0.6,0.5,1.2,0.5,1.9C43.5,56.1,41.7,57.9,39.4,57.9z"/>
		<path id="XMLID_109_" class="st0" d="M40.6,51V31.2c0-0.6-0.5-1.1-1.1-1.1l0,0c-0.6,0-1.1,0.5-1.1,1.1V51c-1.4,0.5-2.3,2-1.9,3.6
			c0.2,1.2,1.2,2.2,2.4,2.4c2,0.4,3.8-1.1,3.8-3.1C42.5,52.6,41.7,51.5,40.6,51z"/>
		<path id="XMLID_106_" class="st0" d="M39.8,14.6c-14,0-25.4,11.4-25.4,25.4c0,14,11.4,25.4,25.4,25.4c14,0,25.4-11.4,25.4-25.4
			C65.2,26,53.8,14.6,39.8,14.6z M32.8,44.7L21.6,55.8c-3.7-4.2-6-9.8-6-15.8c0-13.3,10.8-24.1,24.1-24.1c6.1,0,11.6,2.3,15.9,6
			l-9.7,9.7l0,4.7L58,24.1c3.7,4.2,6,9.8,6,15.9c0,13.3-10.8,24.1-24.1,24.1c-6.1,0-11.6-2.3-15.8-6l8.8-8.8"/>
		<path id="XMLID_103_" class="st0" d="M39.8,79c-21.5,0-39-17.5-39-39c0-21.5,17.5-39,39-39c21.5,0,39,17.5,39,39
			C78.8,61.5,61.3,79,39.8,79z M39.8,2.3C19,2.3,2.1,19.2,2.1,40c0,20.8,16.9,37.7,37.7,37.7c20.8,0,37.7-16.9,37.7-37.7
			C77.5,19.2,60.6,2.3,39.8,2.3z"/>
		<g id="XMLID_57_">
			<path id="XMLID_101_" class="st0" d="M8.3,54.2L8,53.3l2.6-3.5l-3.4,1.3l-0.4-0.9l4.9-1.8l0.4,1.1l-2.4,3.3l3.2-1.2l0.3,0.9
				L8.3,54.2z"/>
			<path id="XMLID_98_" class="st0" d="M14.3,59.4c-0.3,0.2-0.7,0.3-1,0.4c-0.4,0.1-0.7,0-1.1,0c-0.3-0.1-0.7-0.2-1-0.4
				c-0.3-0.2-0.5-0.5-0.8-0.8c-0.2-0.3-0.3-0.7-0.4-1c-0.1-0.4-0.1-0.7,0-1.1c0.1-0.3,0.2-0.7,0.4-1c0.2-0.3,0.5-0.6,0.8-0.8
				c0.3-0.2,0.7-0.3,1-0.4c0.4-0.1,0.7,0,1.1,0c0.3,0.1,0.7,0.2,1,0.4c0.3,0.2,0.5,0.5,0.8,0.8c0.2,0.3,0.3,0.7,0.4,1
				c0.1,0.4,0.1,0.7,0,1.1c-0.1,0.3-0.2,0.7-0.4,1C14.9,59,14.7,59.2,14.3,59.4z M13.8,58.5c0.2-0.1,0.4-0.3,0.5-0.5
				c0.1-0.2,0.2-0.4,0.3-0.6c0.1-0.2,0.1-0.4,0-0.7c0-0.2-0.1-0.5-0.2-0.7c-0.1-0.2-0.3-0.4-0.5-0.5c-0.2-0.1-0.4-0.2-0.6-0.3
				c-0.2,0-0.4-0.1-0.7,0c-0.2,0-0.4,0.1-0.6,0.2c-0.2,0.1-0.4,0.3-0.5,0.5c-0.1,0.2-0.2,0.4-0.3,0.6c-0.1,0.2-0.1,0.4,0,0.7
				c0,0.2,0.1,0.5,0.2,0.7c0.1,0.2,0.3,0.4,0.5,0.5c0.2,0.1,0.4,0.2,0.6,0.3c0.2,0.1,0.4,0.1,0.7,0C13.4,58.8,13.6,58.7,13.8,58.5z"
				/>
			<path id="XMLID_95_" class="st0" d="M20.7,64.2c-0.2,0.2-0.3,0.3-0.6,0.4c-0.2,0.1-0.4,0.2-0.7,0.2c-0.2,0-0.5,0-0.7-0.1
				c-0.2-0.1-0.4-0.2-0.6-0.3l-0.7-0.6l-1.1,1.3l-0.8-0.7l3.4-4l1.4,1.2c0.2,0.2,0.3,0.3,0.4,0.6c0.1,0.2,0.2,0.4,0.2,0.7
				c0,0.2,0,0.5-0.1,0.7C20.9,63.8,20.8,64.1,20.7,64.2z M19.9,63.6c0.1-0.1,0.1-0.2,0.2-0.3c0-0.1,0.1-0.2,0-0.4
				c0-0.1,0-0.2-0.1-0.4c-0.1-0.1-0.1-0.2-0.2-0.3l-0.5-0.4L18,63.3l0.5,0.4c0.1,0.1,0.2,0.1,0.3,0.2c0.1,0,0.3,0,0.4,0
				c0.1,0,0.2-0.1,0.4-0.1C19.7,63.8,19.8,63.7,19.9,63.6z"/>
			<path id="XMLID_92_" class="st0" d="M23.7,70.4l-0.9-0.6l0.2-1.1l-2.1-1.4l-1,0.6l-0.9-0.6l4.9-3.1l0.7,0.4L23.7,70.4z M23,67.7
				l0.3-2.1l-1.8,1.1L23,67.7z"/>
			<path id="XMLID_90_" class="st0" d="M29.1,71c-0.1,0.2-0.2,0.3-0.3,0.5c-0.1,0.1-0.3,0.2-0.5,0.3c-0.2,0.1-0.4,0.1-0.6,0.1
				c-0.2,0-0.5,0-0.7-0.1c-0.2-0.1-0.4-0.2-0.6-0.3c-0.2-0.1-0.3-0.2-0.4-0.3c-0.1-0.1-0.2-0.2-0.3-0.4c-0.1-0.1-0.2-0.3-0.3-0.5
				l0.9-0.4c0.1,0.2,0.3,0.4,0.4,0.6c0.2,0.1,0.4,0.3,0.6,0.3c0.1,0,0.2,0.1,0.3,0.1c0.1,0,0.2,0,0.2,0c0.1,0,0.1-0.1,0.2-0.1
				c0.1,0,0.1-0.1,0.1-0.2c0-0.1,0-0.2,0-0.2c0-0.1,0-0.2-0.1-0.2c-0.1-0.1-0.1-0.2-0.2-0.3c-0.1-0.1-0.2-0.2-0.4-0.4
				c-0.2-0.1-0.3-0.3-0.4-0.4c-0.1-0.1-0.2-0.3-0.3-0.5c-0.1-0.2-0.1-0.3-0.1-0.5c0-0.2,0-0.4,0.1-0.6c0.1-0.2,0.2-0.4,0.4-0.5
				c0.2-0.1,0.3-0.2,0.5-0.3c0.2-0.1,0.4-0.1,0.6-0.1c0.2,0,0.4,0.1,0.7,0.1c0.4,0.1,0.7,0.3,0.9,0.5c0.2,0.2,0.4,0.4,0.5,0.7
				l-0.9,0.4c-0.1-0.2-0.2-0.3-0.3-0.4c-0.1-0.1-0.3-0.2-0.5-0.3c-0.1,0-0.2-0.1-0.3-0.1c-0.1,0-0.2,0-0.2,0c-0.1,0-0.1,0.1-0.2,0.1
				c-0.1,0-0.1,0.1-0.1,0.2c0,0.1,0,0.2,0,0.2c0,0.1,0,0.2,0.1,0.2c0.1,0.1,0.1,0.2,0.2,0.3c0.1,0.1,0.2,0.2,0.4,0.4
				c0.2,0.2,0.4,0.4,0.5,0.5c0.1,0.2,0.2,0.3,0.3,0.5c0.1,0.2,0.1,0.3,0.1,0.5C29.2,70.7,29.2,70.8,29.1,71z"/>
			<path id="XMLID_88_" class="st0" d="M34.8,69.4l-1.4-0.3l-1,4.2l-1-0.2l1-4.2L31,68.5l0.2-0.9l3.8,0.9L34.8,69.4z"/>
			<path id="XMLID_86_" class="st0" d="M39.1,74.1l-3.5-0.3l0.4-5.2l3.5,0.3l-0.1,0.8L37,69.6l-0.1,1.3l2.4,0.2l-0.1,0.8l-2.4-0.2
				l-0.1,1.4l2.5,0.2L39.1,74.1z"/>
			<path id="XMLID_84_" class="st0" d="M45.2,68.5l0.3,2.8c0,0.3,0,0.7-0.1,1c-0.1,0.3-0.2,0.6-0.4,0.8c-0.2,0.2-0.4,0.4-0.7,0.6
				c-0.3,0.2-0.6,0.3-1,0.3c-0.4,0-0.7,0-1-0.1c-0.3-0.1-0.6-0.2-0.8-0.4c-0.2-0.2-0.4-0.4-0.5-0.7c-0.1-0.3-0.2-0.6-0.3-0.9
				L40.5,69l1-0.1l0.3,2.9c0,0.2,0.1,0.4,0.1,0.6c0.1,0.2,0.2,0.3,0.3,0.4c0.1,0.1,0.3,0.2,0.4,0.3c0.2,0.1,0.4,0.1,0.6,0.1
				c0.2,0,0.4-0.1,0.6-0.2c0.2-0.1,0.3-0.2,0.4-0.3c0.1-0.1,0.2-0.3,0.2-0.5c0-0.2,0-0.4,0-0.6l-0.3-2.9L45.2,68.5z"/>
			<path id="XMLID_81_" class="st0" d="M51.5,72.2l-1.1,0.3l-0.7-1c-0.1-0.1-0.2-0.2-0.2-0.3c-0.1-0.1-0.2-0.2-0.3-0.2
				c-0.1-0.1-0.2-0.1-0.3-0.1c-0.1,0-0.3,0-0.4,0.1L48.1,71l0.6,2l-1,0.3l-1.5-5l2-0.6c0.2-0.1,0.4-0.1,0.6-0.1
				c0.2,0,0.4,0.1,0.6,0.2c0.2,0.1,0.3,0.2,0.4,0.4c0.1,0.2,0.2,0.3,0.3,0.5c0,0.1,0.1,0.3,0.1,0.5c0,0.2,0,0.3-0.1,0.4
				c0,0.1-0.1,0.3-0.2,0.4c-0.1,0.1-0.2,0.2-0.3,0.3c0.2,0,0.3,0.1,0.5,0.1c0.1,0.1,0.2,0.2,0.4,0.3c0.1,0.1,0.1,0.1,0.1,0.2
				c0,0.1,0.1,0.1,0.1,0.2c0,0.1,0.1,0.1,0.2,0.2c0.1,0.1,0.1,0.2,0.2,0.3c0.1,0.1,0.2,0.2,0.2,0.3C51.4,72.1,51.4,72.1,51.5,72.2z
				 M49.2,69c0-0.1-0.1-0.2-0.2-0.3c-0.1-0.1-0.2-0.2-0.3-0.2c-0.1-0.1-0.2-0.1-0.3-0.1c-0.1,0-0.2,0-0.3,0l-0.7,0.2l0.5,1.6
				l0.7-0.2c0.1,0,0.2-0.1,0.3-0.1c0.1-0.1,0.2-0.1,0.2-0.2c0.1-0.1,0.1-0.2,0.1-0.3C49.2,69.3,49.2,69.2,49.2,69z"/>
			<path id="XMLID_78_" class="st0" d="M54,71.1L53,71.5l-2.1-4.8l0.9-0.4L54,71.1z"/>
			<path id="XMLID_76_" class="st0" d="M56.6,63.7l0,5l2.2-1.3l0.5,0.9l-3.7,2.2l0-5.1l-2.1,1.3L53,65.8L56.6,63.7z"/>
			<path id="XMLID_73_" class="st0" d="M64.8,63.6L64,64.3l-1.1-0.5L61,65.5l0.3,1.1l-0.8,0.7l-1.6-5.6l0.6-0.5L64.8,63.6z
				 M62.1,63.5l-1.9-0.8l0.6,2L62.1,63.5z"/>
			<path id="XMLID_62_" class="st0" d="M66.7,56.9c0.3,0.2,0.5,0.5,0.7,0.8c0.2,0.3,0.3,0.6,0.4,0.9c0.1,0.3,0.1,0.6,0,1
				c-0.1,0.3-0.2,0.6-0.4,0.9L66,62.2l-4.2-3.1l1.3-1.8c0.2-0.3,0.5-0.5,0.8-0.7c0.3-0.2,0.6-0.3,0.9-0.3c0.3,0,0.6,0,1,0.1
				C66.1,56.5,66.4,56.7,66.7,56.9z M66.1,57.7c-0.2-0.1-0.4-0.3-0.6-0.3c-0.2-0.1-0.4-0.1-0.7-0.1c-0.2,0-0.4,0.1-0.6,0.2
				c-0.2,0.1-0.4,0.3-0.6,0.5l-0.5,0.7l2.9,2.1l0.5-0.7c0.2-0.2,0.3-0.4,0.3-0.7c0.1-0.2,0.1-0.4,0-0.7c0-0.2-0.1-0.4-0.2-0.6
				C66.4,58,66.3,57.9,66.1,57.7z"/>
			<path id="XMLID_58_" class="st0" d="M69.9,50.8c0.3,0.2,0.6,0.4,0.9,0.7c0.2,0.3,0.4,0.6,0.5,0.9c0.1,0.3,0.2,0.7,0.1,1.1
				c0,0.4-0.1,0.7-0.3,1.1c-0.2,0.3-0.4,0.6-0.7,0.9c-0.3,0.2-0.6,0.4-0.9,0.5c-0.3,0.1-0.7,0.2-1,0.2c-0.4,0-0.7-0.1-1.1-0.3
				c-0.3-0.2-0.6-0.4-0.9-0.7c-0.2-0.3-0.4-0.6-0.5-0.9c-0.1-0.3-0.1-0.7-0.1-1.1c0-0.4,0.1-0.7,0.3-1.1c0.2-0.3,0.4-0.6,0.7-0.9
				c0.3-0.2,0.6-0.4,0.9-0.5c0.3-0.1,0.7-0.2,1-0.2C69.2,50.5,69.5,50.6,69.9,50.8z M69.4,51.7c-0.2-0.1-0.4-0.2-0.7-0.2
				c-0.2,0-0.5,0-0.7,0.1c-0.2,0.1-0.4,0.2-0.6,0.3c-0.2,0.2-0.3,0.3-0.4,0.6c-0.1,0.2-0.2,0.4-0.2,0.7c0,0.2,0,0.5,0.1,0.7
				c0.1,0.2,0.2,0.4,0.3,0.6c0.2,0.2,0.3,0.3,0.5,0.4c0.2,0.1,0.4,0.2,0.7,0.2c0.2,0,0.5,0,0.7-0.1c0.2-0.1,0.4-0.2,0.6-0.3
				c0.2-0.2,0.3-0.3,0.4-0.6c0.1-0.2,0.2-0.4,0.2-0.7c0-0.2,0-0.5-0.1-0.7c-0.1-0.2-0.2-0.4-0.3-0.6C69.8,51.9,69.6,51.8,69.4,51.7z
				"/>
		</g>
		<g id="XMLID_21_">
			<path id="XMLID_55_" class="st0" d="M13.8,28.7l-0.3,0.9l-4.3,1l3.5,1.2l-0.3,0.9l-5-1.7L7.7,30l4-1l-3.2-1.1l0.3-0.9L13.8,28.7z
				"/>
			<path id="XMLID_52_" class="st0" d="M14.9,21.4c0.3,0.2,0.6,0.4,0.8,0.7c0.2,0.3,0.3,0.6,0.4,1c0.1,0.3,0.1,0.7,0,1.1
				c-0.1,0.4-0.2,0.7-0.4,1c-0.2,0.3-0.4,0.6-0.7,0.8c-0.3,0.2-0.6,0.4-1,0.5c-0.3,0.1-0.7,0.1-1.1,0.1c-0.4,0-0.7-0.2-1-0.4
				c-0.3-0.2-0.6-0.4-0.8-0.8c-0.2-0.3-0.3-0.6-0.4-1c-0.1-0.3-0.1-0.7,0-1.1c0.1-0.4,0.2-0.7,0.4-1c0.2-0.3,0.4-0.6,0.7-0.8
				c0.3-0.2,0.6-0.4,1-0.4c0.3-0.1,0.7-0.1,1.1-0.1C14.2,21.1,14.6,21.2,14.9,21.4z M14.4,22.3c-0.2-0.1-0.4-0.2-0.6-0.2
				c-0.2,0-0.5,0-0.7,0c-0.2,0.1-0.4,0.1-0.6,0.3c-0.2,0.1-0.4,0.3-0.5,0.5c-0.1,0.2-0.2,0.4-0.2,0.7c0,0.2,0,0.5,0,0.7
				c0.1,0.2,0.1,0.4,0.3,0.6c0.1,0.2,0.3,0.3,0.5,0.5c0.2,0.1,0.4,0.2,0.6,0.2c0.2,0,0.5,0,0.7,0c0.2-0.1,0.4-0.1,0.6-0.3
				c0.2-0.1,0.4-0.3,0.5-0.5c0.1-0.2,0.2-0.4,0.2-0.7c0-0.2,0-0.5,0-0.7c-0.1-0.2-0.1-0.4-0.3-0.6C14.7,22.6,14.6,22.4,14.4,22.3z"
				/>
			<path id="XMLID_49_" class="st0" d="M20.2,14.9c0.2,0.2,0.3,0.4,0.4,0.6c0.1,0.2,0.1,0.5,0.1,0.7c0,0.2-0.1,0.4-0.2,0.7
				c-0.1,0.2-0.2,0.4-0.4,0.6L19.4,18l1.1,1.3L19.7,20L16.2,16l1.4-1.3c0.2-0.2,0.4-0.3,0.6-0.4c0.2-0.1,0.4-0.1,0.7-0.1
				c0.2,0,0.4,0.1,0.7,0.2C19.8,14.6,20,14.7,20.2,14.9z M19.4,15.6c-0.1-0.1-0.2-0.2-0.3-0.2c-0.1-0.1-0.2-0.1-0.4-0.1
				c-0.1,0-0.2,0-0.4,0c-0.1,0-0.2,0.1-0.3,0.2l-0.5,0.4l1.3,1.5l0.5-0.4c0.1-0.1,0.2-0.2,0.2-0.3c0.1-0.1,0.1-0.2,0.1-0.4
				c0-0.1,0-0.3-0.1-0.4C19.6,15.8,19.5,15.7,19.4,15.6z"/>
			<path id="XMLID_46_" class="st0" d="M27.2,14.5l-0.9,0.6l-1-0.6l-2.2,1.4l0.1,1.2l-0.9,0.6l-0.7-5.8l0.7-0.4L27.2,14.5z
				 M24.5,13.9l-1.7-1.1l0.3,2.1L24.5,13.9z"/>
			<path id="XMLID_44_" class="st0" d="M30.9,11.6C31,11.8,31,12,31,12.2c0,0.2-0.1,0.4-0.2,0.6c-0.1,0.2-0.2,0.3-0.4,0.5
				c-0.2,0.2-0.4,0.3-0.6,0.4c-0.2,0.1-0.4,0.1-0.6,0.2c-0.2,0-0.4,0.1-0.5,0.1c-0.2,0-0.3,0-0.5,0c-0.2,0-0.4-0.1-0.5-0.1l0.4-0.9
				c0.3,0.1,0.5,0.1,0.7,0.1c0.2,0,0.4-0.1,0.7-0.1c0.1,0,0.2-0.1,0.2-0.1c0.1-0.1,0.1-0.1,0.2-0.2c0-0.1,0.1-0.1,0.1-0.2
				c0-0.1,0-0.1,0-0.2c0-0.1-0.1-0.1-0.1-0.2c-0.1-0.1-0.1-0.1-0.2-0.1c-0.1,0-0.2,0-0.4-0.1c-0.2,0-0.3,0-0.6,0c-0.2,0-0.4,0-0.6,0
				c-0.2,0-0.4-0.1-0.6-0.1c-0.2-0.1-0.3-0.2-0.5-0.3c-0.1-0.1-0.2-0.3-0.3-0.5c-0.1-0.2-0.1-0.4-0.1-0.6c0-0.2,0.1-0.4,0.2-0.6
				c0.1-0.2,0.2-0.3,0.4-0.5c0.2-0.1,0.4-0.3,0.6-0.3c0.4-0.1,0.7-0.2,1-0.2c0.3,0,0.6,0.1,0.9,0.2l-0.4,0.9
				c-0.2-0.1-0.3-0.1-0.5-0.1c-0.2,0-0.4,0-0.6,0.1c-0.1,0-0.2,0.1-0.2,0.1c-0.1,0.1-0.1,0.1-0.2,0.2c0,0.1-0.1,0.1-0.1,0.2
				c0,0.1,0,0.1,0,0.2c0,0.1,0.1,0.1,0.1,0.2c0.1,0.1,0.1,0.1,0.2,0.1c0.1,0,0.2,0,0.4,0.1c0.2,0,0.3,0,0.6,0c0.3,0,0.5,0,0.7,0
				c0.2,0,0.4,0.1,0.6,0.2c0.2,0.1,0.3,0.2,0.4,0.3C30.7,11.3,30.8,11.4,30.9,11.6z"/>
			<path id="XMLID_42_" class="st0" d="M35.2,7.6l-1.4,0.3l0.9,4.3l-1,0.2l-0.9-4.3l-1.4,0.3l-0.2-0.9L35,6.7L35.2,7.6z"/>
			<path id="XMLID_40_" class="st0" d="M40.7,11.7l-3.5,0.1l-0.2-5.2l3.5-0.1l0,0.8l-2.5,0.1l0,1.3l2.4-0.1l0,0.8l-2.4,0.1l0,1.4
				l2.5-0.1L40.7,11.7z"/>
			<path id="XMLID_38_" class="st0" d="M47.3,7.2L46.8,10c-0.1,0.3-0.2,0.7-0.3,0.9c-0.2,0.3-0.3,0.5-0.6,0.7
				c-0.2,0.2-0.5,0.3-0.8,0.4c-0.3,0.1-0.6,0.1-1,0c-0.4-0.1-0.7-0.2-0.9-0.3c-0.3-0.2-0.5-0.4-0.7-0.6c-0.2-0.2-0.3-0.5-0.3-0.8
				c-0.1-0.3-0.1-0.6,0-1l0.4-2.9l1,0.2l-0.4,2.9c0,0.2,0,0.4,0,0.6c0,0.2,0.1,0.3,0.2,0.5c0.1,0.1,0.2,0.3,0.4,0.4
				c0.2,0.1,0.3,0.2,0.5,0.2c0.2,0,0.4,0,0.6,0c0.2,0,0.3-0.1,0.4-0.2c0.1-0.1,0.2-0.3,0.3-0.4c0.1-0.2,0.1-0.4,0.2-0.6L46.2,7
				L47.3,7.2z"/>
			<path id="XMLID_35_" class="st0" d="M51.4,14.1l-1.1-0.4l0.1-1.3c0-0.1,0-0.3,0-0.4c0-0.1-0.1-0.2-0.1-0.3
				c-0.1-0.1-0.1-0.2-0.2-0.3c-0.1-0.1-0.2-0.1-0.4-0.2l-0.4-0.1l-0.7,2l-0.9-0.3l1.8-4.9l2,0.7c0.2,0.1,0.4,0.2,0.5,0.3
				c0.2,0.1,0.3,0.3,0.4,0.5c0.1,0.2,0.1,0.4,0.1,0.6c0,0.2,0,0.4-0.1,0.6c-0.1,0.1-0.1,0.3-0.2,0.4c-0.1,0.1-0.2,0.2-0.3,0.3
				c-0.1,0.1-0.3,0.2-0.4,0.2c-0.1,0-0.3,0.1-0.4,0.1c0.1,0.1,0.2,0.2,0.3,0.4c0.1,0.1,0.1,0.3,0.1,0.5c0,0.1,0,0.2,0,0.2
				c0,0.1,0,0.2,0,0.2c0,0.1,0,0.2,0,0.3c0,0.1,0,0.2,0,0.3c0,0.2,0,0.3,0,0.4C51.4,13.9,51.4,14,51.4,14.1z M51.4,10.2
				c0-0.1,0.1-0.2,0-0.3c0-0.1,0-0.2-0.1-0.3c0-0.1-0.1-0.2-0.2-0.3c-0.1-0.1-0.2-0.1-0.3-0.2l-0.7-0.3l-0.6,1.5l0.7,0.3
				c0.1,0,0.2,0.1,0.3,0.1c0.1,0,0.2,0,0.3-0.1c0.1,0,0.2-0.1,0.3-0.2C51.3,10.4,51.4,10.3,51.4,10.2z"/>
			<path id="XMLID_33_" class="st0" d="M53.3,15.1l-0.9-0.5l2.4-4.7l0.9,0.5L53.3,15.1z"/>
			<path id="XMLID_31_" class="st0" d="M61,13.9l-4.5,2l2.1,1.5l-0.6,0.8l-3.5-2.5l4.6-2l-2-1.4l0.5-0.7L61,13.9z"/>
			<path id="XMLID_28_" class="st0" d="M62.4,22.8L61.7,22l0.4-1.1L60.4,19l-1.1,0.4l-0.8-0.8l5.5-1.8l0.5,0.6L62.4,22.8z M62.5,20
				l0.8-1.9l-2,0.6L62.5,20z"/>
			<path id="XMLID_25_" class="st0" d="M67.6,26.2c-0.3,0.2-0.6,0.3-1,0.4c-0.3,0.1-0.7,0.1-1,0c-0.3-0.1-0.6-0.2-0.9-0.4
				c-0.3-0.2-0.5-0.4-0.7-0.7l-1.1-1.9l4.5-2.7l1.1,1.9c0.2,0.3,0.3,0.6,0.3,1c0,0.3,0,0.7-0.1,1c-0.1,0.3-0.2,0.6-0.5,0.9
				C68.2,25.8,67.9,26.1,67.6,26.2z M67.1,25.3c0.2-0.1,0.4-0.3,0.5-0.5c0.1-0.2,0.3-0.4,0.3-0.6c0.1-0.2,0.1-0.4,0.1-0.7
				c0-0.2-0.1-0.5-0.3-0.7l-0.5-0.8L64.2,24l0.5,0.8c0.1,0.2,0.3,0.4,0.5,0.5c0.2,0.1,0.4,0.2,0.6,0.3c0.2,0,0.4,0,0.7,0
				C66.6,25.6,66.9,25.5,67.1,25.3z"/>
			<path id="XMLID_22_" class="st0" d="M70,33c-0.4,0.1-0.7,0.2-1.1,0.1c-0.4,0-0.7-0.1-1-0.3c-0.3-0.2-0.6-0.4-0.8-0.7
				c-0.2-0.3-0.4-0.6-0.5-1c-0.1-0.4-0.2-0.7-0.1-1.1c0-0.4,0.1-0.7,0.3-1c0.2-0.3,0.4-0.6,0.6-0.8c0.3-0.2,0.6-0.4,0.9-0.5
				c0.4-0.1,0.7-0.2,1.1-0.1c0.4,0,0.7,0.1,1,0.3c0.3,0.2,0.6,0.4,0.8,0.7c0.2,0.3,0.4,0.6,0.5,1c0.1,0.4,0.2,0.7,0.1,1.1
				c0,0.4-0.1,0.7-0.3,1c-0.2,0.3-0.4,0.6-0.6,0.8C70.7,32.7,70.4,32.8,70,33z M69.7,32c0.2-0.1,0.4-0.2,0.6-0.3
				c0.2-0.2,0.3-0.3,0.4-0.5c0.1-0.2,0.2-0.4,0.2-0.7c0-0.2,0-0.5-0.1-0.7c-0.1-0.2-0.2-0.4-0.4-0.6c-0.2-0.2-0.3-0.3-0.5-0.4
				c-0.2-0.1-0.4-0.2-0.6-0.2c-0.2,0-0.5,0-0.7,0.1c-0.2,0.1-0.4,0.2-0.6,0.3c-0.2,0.2-0.3,0.3-0.4,0.5c-0.1,0.2-0.2,0.4-0.2,0.7
				c0,0.2,0,0.5,0.1,0.7c0.1,0.2,0.2,0.4,0.3,0.6c0.2,0.2,0.3,0.3,0.5,0.4c0.2,0.1,0.4,0.2,0.7,0.2C69.3,32.1,69.5,32.1,69.7,32z"/>
		</g>
	</g>
</g>
</svg>
