<?xml version="1.0" encoding="utf-8"?>
<!-- Generator: Adobe Illustrator 19.0.0, SVG Export Plug-In . SVG Version: 6.00 Build 0)  -->
<svg version="1.1" id="Capa_1" xmlns="http://www.w3.org/2000/svg" xmlns:xlink="http://www.w3.org/1999/xlink" x="0px" y="0px"
	 viewBox="0 0 30 46" style="enable-background:new 0 0 30 46;" xml:space="preserve">
<style type="text/css">
	.st0{fill:#FFFFFF;}
</style>
<g>
	<path class="st0" d="M14.3,17.2v-6.4l-1.6,1.6c-0.3,0.3-0.7,0.3-1,0c-0.3-0.3-0.3-0.7,0-1l2.8-2.8c0.3-0.3,0.7-0.3,1,0l2.8,2.8
		c0.3,0.3,0.3,0.7,0,1c-0.1,0.1-0.3,0.2-0.5,0.2c-0.2,0-0.4-0.1-0.5-0.2l-1.6-1.6v6.4l1.6-1.6c0.3-0.3,0.7-0.3,1,0
		c0.3,0.3,0.3,0.7,0,1l-2.8,2.8c-0.1,0.1-0.3,0.2-0.5,0.2c-0.2,0-0.4-0.1-0.5-0.2l-2.8-2.8c-0.3-0.3-0.3-0.7,0-1
		c0.3-0.3,0.7-0.3,1,0L14.3,17.2z M27.5,17.5v9.7c0,6.9-5.6,12.5-12.5,12.5C8.2,39.6,2.6,34,2.6,27.1v-4.8c0,0,0,0,0,0c0,0,0,0,0,0
		v-4.8C2.6,10.6,8.2,5,15,5C21.9,5,27.5,10.6,27.5,17.5z M4,17.5v4.2h22.1v-4.2c0-6.1-5-11.1-11.1-11.1C8.9,6.4,4,11.4,4,17.5z
		 M26.1,27.1V23H4v4.2c0,6.1,5,11.1,11.1,11.1C21.1,38.2,26.1,33.2,26.1,27.1z"/>
</g>
</svg>
