<?xml version="1.0" encoding="utf-8"?>
<!-- Generator: Adobe Illustrator 19.0.0, SVG Export Plug-In . SVG Version: 6.00 Build 0)  -->
<svg version="1.1" id="Capa_1" xmlns="http://www.w3.org/2000/svg" xmlns:xlink="http://www.w3.org/1999/xlink" x="0px" y="0px"
	 viewBox="0 0 116 30" style="enable-background:new 0 0 116 30;" xml:space="preserve">
<style type="text/css">
	.st0{fill:#222222;}
</style>
<g id="XMLID_1_">
	<g>
		<path id="XMLID_15_" class="st0" d="M41.4,14.4c0-1.3,1.1-2.4,2.4-2.4c1.3,0,2.4,1.1,2.4,2.4c0,1.3-1.1,2.4-2.4,2.4
			C42.4,16.8,41.4,15.7,41.4,14.4"/>
	</g>
	<g>
		<path id="XMLID_14_" class="st0" d="M47.3,13.3h1.4V19c0,0.2,0,0.4-0.3,0.4H39c-0.2,0-0.3-0.2-0.3-0.4v-5.7h1.4
			c-0.2,0-0.3,0.8-0.3,1.1c0,2.1,1.7,3.8,3.8,3.8c2.1,0,3.8-1.7,3.8-3.7C47.6,14.1,47.5,13.3,47.3,13.3"/>
	</g>
	<g>
		<g>
			<path id="XMLID_13_" class="st0" d="M48.4,11.2c0,0.2-0.2,0.4-0.4,0.4h-1.3c-0.2,0-0.4-0.2-0.4-0.4V10c0-0.2,0.2-0.4,0.4-0.4H48
				c0.2,0,0.4,0.2,0.4,0.4V11.2z"/>
		</g>
		<g>
			<path class="st0" d="M43.4,1.4c-7.2,0-13,5.8-13,13c0,7.2,5.8,13,13,13c7.2,0,13-5.8,13-13C56.4,7.2,50.6,1.4,43.4,1.4
				 M50.1,19.1c0,0.8-0.7,1.4-1.6,1.4H39c-0.8,0-1.5-0.6-1.5-1.4V9.6c0-0.8,0.7-1.4,1.5-1.4h9.6c0.8,0,1.6,0.6,1.6,1.4V19.1z"/>
		</g>
	</g>
</g>
<g id="XMLID_2_">
	<path id="XMLID_3_" class="st0" d="M14.1,1.4c-7.2,0-13,5.8-13,13c0,7.2,5.8,13,13,13c7.2,0,13-5.8,13-13
		C27.1,7.2,21.3,1.4,14.1,1.4 M20.4,19.9c0,0.4-0.2,0.8-0.6,0.8h-3.2v-4.8h1.6l0.2-2.1h-1.9v-1.2c0-0.5,0.1-0.8,0.9-0.8h1.1V10
		c-0.3,0-0.9-0.1-1.6-0.1c-1.4,0-2.5,0.9-2.5,2.5v1.4h-1.7v2.1h1.7v4.8H8.7c-0.4,0-0.6-0.4-0.6-0.8V8.7C8.1,8.3,8.3,8,8.7,8h11.2
		c0.4,0,0.6,0.3,0.6,0.7V19.9z"/>
</g>
<g id="XMLID_6_">
	<path id="XMLID_7_" class="st0" d="M102,1.4c-7.3,0-13.2,5.9-13.2,13.2s5.9,13.2,13.2,13.2c7.3,0,13.2-5.9,13.2-13.2
		S109.3,1.4,102,1.4 M107.3,11.9c0,0.1,0,0.2,0,0.4c0,3.6-2.7,7.7-7.7,7.7c-1.5,0-2.9-0.4-4.1-1.2c0.2,0,0.4,0,0.6,0
		c1.3,0,2.4-0.4,3.4-1.2c-1.2,0-2.2-0.8-2.5-1.9c0.2,0,0.3,0,0.5,0c0.2,0,0.5,0,0.7-0.1C96.9,15.4,96,14.3,96,13c0,0,0,0,0,0
		c0.4,0.2,0.8,0.3,1.2,0.3C96.5,12.8,96,12,96,11.1c0-0.5,0.1-1,0.4-1.4c1.3,1.6,3.3,2.7,5.6,2.8c0-0.2-0.1-0.4-0.1-0.6
		c0-1.5,1.2-2.7,2.7-2.7c0.8,0,1.5,0.3,2,0.9c0.6-0.1,1.2-0.3,1.7-0.7c-0.2,0.6-0.6,1.2-1.2,1.5c0.5-0.1,1.1-0.2,1.6-0.4
		C108.3,11,107.8,11.5,107.3,11.9"/>
</g>
<g id="XMLID_10_">
	<g>
		<path class="st0" d="M72.7,1.4c-7.3,0-13.2,5.9-13.2,13.2s5.9,13.2,13.2,13.2c7.3,0,13.2-5.9,13.2-13.2S80,1.4,72.7,1.4
			 M79.3,15.1c0,1.1-0.1,2.1-0.1,2.1s-0.1,0.9-0.5,1.3c-0.5,0.5-1.1,0.5-1.3,0.6c-1.8,0.1-4.6,0.1-4.6,0.1s-3.4,0-4.5-0.1
			c-0.3-0.1-1,0-1.5-0.6c-0.4-0.4-0.5-1.3-0.5-1.3s-0.1-1.1-0.1-2.1v-1c0-1.1,0.1-2.1,0.1-2.1s0.1-0.9,0.5-1.3
			c0.5-0.5,1.1-0.5,1.3-0.6c1.8-0.1,4.6-0.1,4.6-0.1h0c0,0,2.8,0,4.6,0.1c0.3,0,0.8,0,1.3,0.6c0.4,0.4,0.5,1.3,0.5,1.3
			s0.1,1.1,0.1,2.1V15.1z"/>
	</g>
	<g>
		<polygon id="XMLID_16_" class="st0" points="71.4,16.3 74.9,14.4 71.4,12.6 		"/>
	</g>
</g>
</svg>
